<?xml version="1.0" standalone="no"?><!DOCTYPE svg PUBLIC "-//W3C//DTD SVG 1.1//EN" "http://www.w3.org/Graphics/SVG/1.1/DTD/svg11.dtd"><svg t="1573194237735" class="icon" viewBox="0 0 1024 1024" version="1.1" xmlns="http://www.w3.org/2000/svg" p-id="4019" xmlns:xlink="http://www.w3.org/1999/xlink" width="200" height="200"><defs><style type="text/css"></style></defs><path d="M514.972672 25.220096c-261.41696 0-473.339904 211.922944-473.339904 473.339904 0 261.424128 211.922944 473.344 473.339904 473.344 261.419008 0 473.34912-211.919872 473.34912-473.344C988.321792 237.14304 776.39168 25.220096 514.972672 25.220096zM810.990592 516.393984l-277.533696 0.64-0.584704 278.121472c-0.039936 10.202112-8.31488 18.477056-18.516992 18.477056l-0.039936 0c-10.202112-0.039936-18.477056-8.31488-18.477056-18.556928l0.582656-277.955584-277.376 0.64-0.039936 0c-10.202112 0-18.477056-8.274944-18.516992-18.477056 0-10.202112 8.233984-18.516992 18.477056-18.556928l277.533696-0.64 0.584704-278.121472c0.039936-10.202112 8.31488-18.477056 18.516992-18.477056l0.039936 0c10.202112 0.039936 18.477056 8.31488 18.477056 18.556928L533.53472 480l277.376-0.64 0.039936 0c10.202112 0 18.477056 8.274944 18.516992 18.477056C829.467648 508.039168 821.233664 516.353024 810.990592 516.393984z" p-id="4020" fill="#13a21d"></path></svg>