<?xml version="1.0" standalone="no"?><!DOCTYPE svg PUBLIC "-//W3C//DTD SVG 1.1//EN" "http://www.w3.org/Graphics/SVG/1.1/DTD/svg11.dtd"><svg t="1573537752346" class="icon" viewBox="0 0 1028 1024" version="1.1" xmlns="http://www.w3.org/2000/svg" p-id="8664" xmlns:xlink="http://www.w3.org/1999/xlink" width="200.78125" height="200"><defs><style type="text/css"></style></defs><path d="M65.313779 1024l735.586902 0c35.32695 0 63.96753-28.642307 63.96753-63.962352L864.868212 491.636261l-63.96753 61.069643 0 407.331743L65.313779 960.037648 65.313779 160.481489l449.357144 0 64.666544-62.308883-1.669003-1.660374L65.313779 96.512233c-35.320046 0-63.962352 28.642307-63.962352 63.969256l0 799.549255C1.351427 995.357693 29.993733 1024 65.313779 1024L65.313779 1024zM65.313779 1024" p-id="8665" fill="#8a8a8a"></path><path d="M975.680023 41.697468C946.823698 14.021699 914.965927 0 880.986952 0c-53.190636 0-91.979862 34.353508-102.539285 44.864605-14.960621 14.774218-438.925442 438.115966-438.925442 438.115966-3.322473 3.389785-5.762981 7.528638-6.997042 12.135225-11.475908 42.444809-69.038401 230.854057-69.595886 232.726724-2.970377 9.649842-0.312399 20.176473 6.789927 27.206308 5.103664 5.120923 11.917754 7.83931 18.89581 7.83931 2.747728 0 5.512716-0.407327 8.231103-1.251321 1.948609-0.659317 196.383183-63.525685 228.38766-73.082325 4.21652-1.251321 8.058507-3.529588 11.208384-6.622509 20.192006-19.92966 409.882712-403.570876 441.428084-436.14492 32.606837-33.638961 48.818779-68.620719 48.192256-104.035692C1025.463614 106.783421 1008.442196 73.099585 975.680023 41.697468L975.680023 41.697468zM931.925211 201.291814c-17.803278 18.367667-157.164194 156.069935-414.221776 409.307968L498.025765 629.992668c-29.469041 9.119973-100.038369 31.792184-153.384341 49.003457 17.176754-56.720224 37.793347-125.240837 46.975454-157.645737 54.939033-54.859639 418.158691-417.532167 431.962919-431.148266 2.685594-2.685594 27.202856-26.234592 57.407156-26.234592 17.143961 0 33.666576 7.822051 50.43773 23.906272 20.052204 19.239276 30.390704 37.72776 30.668584 55.001168C962.405665 160.643729 952.258746 180.288606 931.925211 201.291814L931.925211 201.291814zM931.925211 201.291814" p-id="8666" fill="#8a8a8a"></path></svg>